<?xml version="1.0" encoding="utf-8"?>
<!-- Generator: Adobe Illustrator 27.3.1, SVG Export Plug-In . SVG Version: 6.00 Build 0)  -->
<svg version="1.1" id="Layer_1" xmlns="http://www.w3.org/2000/svg" xmlns:xlink="http://www.w3.org/1999/xlink" x="0px" y="0px"
	 viewBox="0 0 198.4 198.4" style="enable-background:new 0 0 198.4 198.4;" xml:space="preserve">
<g>
	<path d="M-122.2-136.4h-7.7l-41.8-51.6v51.6h-8.4v-67.1h7.1l42.3,51.9v-51.9h8.4V-136.4z"/>
	<path d="M-90.4-173.6c8.2,0,14,6.2,14,14.7c0,9.5-5.4,15.4-14,15.4c-7.9,0-13.3-6.2-13.3-15.5C-103.7-167.4-98.1-173.6-90.4-173.6z
		 M-90.3-181.4c-12.3,0-21.7,9.8-21.7,22.5c0,13.6,9.1,23.4,21.7,23.4c13.2,0,22.3-9.4,22.3-23.4C-68.1-172-77.4-181.4-90.3-181.4z"
		/>
	<path d="M-50.3-180.6v10.1h0.2c4.1-7.8,8.1-11,11.9-11c3.3,0,6.4,1.7,9.8,5.1l-4.3,7.6c-2.5-2.6-5.7-4.3-7.6-4.3
		c-5.6,0-10,6-10,13.6v23.1h-8.2v-44.1H-50.3z"/>
	<path d="M5.2-169.1c-4.7-3.3-7.8-4.3-11.4-4.3c-7.4,0-12.6,6-12.6,14.9c0,9.1,5.5,14.7,13.9,14.7c3.5,0,6.8-1,10.9-3v8.7
		c-2.7,1.4-8,2.6-12.3,2.6c-12.3,0-20.9-9.1-20.9-22.1c0-14.6,7.9-23.8,20.3-23.8c4.8,0,8,1.2,11.9,3V-169.1z"/>
	<path d="M34.2-173.6c8.2,0,14,6.2,14,14.7c0,9.5-5.4,15.4-14,15.4c-7.9,0-13.3-6.2-13.3-15.5C21-167.4,26.5-173.6,34.2-173.6z
		 M34.3-181.4c-12.3,0-21.7,9.8-21.7,22.5c0,13.6,9.1,23.4,21.7,23.4c13.2,0,22.3-9.4,22.3-23.4C56.6-172,47.2-181.4,34.3-181.4z"/>
	<path d="M73.6-174.8h0.2c3.1-4.2,7.7-6.7,12.3-6.7c7.8,0,14,5.7,14,17.8v27.2h-8.2v-27.3c0-6.5-3.1-10.7-8.1-10.7
		c-3.6,0-6.4,1.8-10.3,6.4v31.7h-8.2v-44.1h8.2V-174.8z"/>
	<path d="M135.4-169.2c-4.6-3.2-8.9-4.6-11.9-4.6c-3.3,0-5.4,1.7-5.4,4c0,2,2.8,4.3,10,8.9c6.8,4.8,9.3,7.9,9.3,12.4
		c0,7.8-5.8,13-13.6,13c-5,0-9-1.1-14.3-4v-9.4c5.3,3.9,10.2,5.8,13.5,5.8c3.3-0.2,6-1.9,6-5c0-6.1-19.2-9.3-19.2-21.2
		c0-7.5,5.3-12,13.6-12c3.8,0,7.8,1.2,12.1,3.6V-169.2z"/>
	<path d="M172.8-136.4v-5.6c-3.4,3.9-8.2,6.5-12.2,6.5c-8.3,0-14.2-6.4-14.2-17.6v-27.4h8.2v28c0,6.2,2.8,9.7,8.4,9.7
		c3.7,0,7.1-2.2,9.8-6.2v-31.6h8.2v44.1H172.8z"/>
	<path d="M200.9-136.4h-8.2v-67.1h8.2V-136.4z"/>
	<path d="M222.1-180.6h13v7.9h-13v22.6c0,5.2,3.5,6.7,5.9,6.7c2.9,0,6-1.1,9.2-3.2v8.2c-2.8,1.7-7.2,2.9-9.9,2.9
		c-8.9,0-13.4-5.9-13.4-13.9v-23.3h-7.1v-1l15.3-16V-180.6z"/>
	<path d="M321.6-226.7L294-199l27.6,27.6l27.6-27.6L321.6-226.7z M259.9-165l27.6,27.6l27.6-27.6l-27.6-27.6L259.9-165z
		 M355.6-192.7L328-165l27.6,27.6l27.6-27.6L355.6-192.7z"/>
	<path d="M343-131c0,11.9-9.6,21.5-21.5,21.5c-11.9,0-21.5-9.6-21.5-21.5c0-11.9,9.6-21.5,21.5-21.5C333.4-152.5,343-142.9,343-131z
		"/>
</g>
<g>
	<path d="M100.1,40.2L72.5,67.8l27.6,27.6l27.6-27.6L100.1,40.2z M38.4,101.8L66,129.4l27.6-27.6L66,74.2L38.4,101.8z M134.1,74.2
		l-27.6,27.6l27.6,27.6l27.6-27.6L134.1,74.2z"/>
	<path d="M121.5,135.8c0,11.9-9.6,21.5-21.5,21.5c-11.9,0-21.5-9.6-21.5-21.5c0-11.9,9.6-21.5,21.5-21.5
		C111.9,114.3,121.5,124,121.5,135.8z"/>
</g>
</svg>
